<svg width="160" height="96" fill="none" xmlns="http://www.w3.org/2000/svg"><path d="M81.921 30.517c5.708-5.708 12.803-7.255 18.063-7.485 4.584-.2 8.184 3.4 7.984 7.984-.23 5.26-1.777 12.355-7.485 18.063-5.845 5.845-12.418 9.509-17.071 11.602-3.701 1.664-7.903.548-10.772-2.321-2.87-2.87-3.985-7.07-2.32-10.772 2.092-4.653 5.756-11.226 11.602-17.07z" fill="#D4E7FF"/><path d="M87.66 39.342a6.009 6.009 0 108.497-8.499 6.009 6.009 0 00-8.498 8.499z" fill="#fff"/><path d="M138.048 57.606c.673 3.194 4.63 3.64 6.598 3.227 5.206-1.096 3.788-9-1.5-9-2.052 0-5.77 2.58-5.098 5.773z" fill="#B7EB6E"/><path d="M130.45 80.772c1.022 2.804 3.522 2.596 6.327 1.574 2.804-1.022 2.944-2.543 1.921-5.348-1.022-2.804-2.217-4.178-5.021-3.156a5.405 5.405 0 00-3.227 6.93z" fill="#FFBF00"/><path d="M18.378 28.181c-2.824-.967-4.233 1.108-5.2 3.932-.967 2.824.128 3.889 2.952 4.856 2.824.967 4.644.9 5.61-1.924a5.405 5.405 0 00-3.362-6.864z" fill="#7BB5FB"/><path d="M146.588 58.5a4 4 0 100-8 4 4 0 000 8zM21 65v5.333m0 5.334V81m-2.667-8H13m16 0h-5.333m105.58-59v4.857m0 7.286V31m-3.643-8.5h-4.857m17 0h-4.858" stroke="#071D2B" stroke-width="1.5" stroke-miterlimit="10" stroke-linecap="round" stroke-linejoin="round"/><path d="M62.164 53.506s4.249-15.581 16.997-28.328c10.78-10.78 25.612-9.405 29.932-8.724a1.732 1.732 0 011.453 1.452c.681 4.321 2.057 19.154-8.724 29.934-12.747 12.747-28.328 16.996-28.328 16.996m-11.33-11.33L48 47.84l6.742-6.74a6 6 0 014.242-1.758h8.846m-5.666 14.164l11.33 11.33m0 0L79.161 79l6.74-6.742a6 6 0 001.758-4.242v-8.845m-15.58-7.082l-6.374-6.374m9.206 9.206l6.374 6.374m-23.37 2.124l-9.914 9.915m15.58-4.249l-2.833 2.833m15.58-24.078L62.164 64.836 79.16 50.673l-2.832-2.833zm19.829-8.498a6.009 6.009 0 11-8.498-8.498 6.009 6.009 0 018.498 8.498z" stroke="#071D2B" stroke-width="1.5" stroke-linecap="round" stroke-linejoin="round"/></svg>