<svg width="160" height="96" fill="none" xmlns="http://www.w3.org/2000/svg"><path d="M54.601 46.392c-.028 3.72.516 7.282 1.319 10.164 2.392 8.59 9.93 14.565 17.541 18.815a6.123 6.123 0 005.97 0c11.4-6.364 18.961-15.711 18.86-28.979-.113-15.122-5.665-15.547-19.013-19.456-6.164-1.805-14.154 2.471-19.933 4.196a6.639 6.639 0 00-4.735 6.385c.007 2.958.013 5.917-.009 8.875z" fill="#FFDDBF"/><path d="M85.692 45.691l5.597-4.11c.25-.19.113-.616-.204-.616h-6.869c-.832 0-1.184-.293-1.424-1.08l-2.137-6.627c-.13-.26-.731-.328-.814 0l-2.137 6.628c-.284.745-.604 1.079-1.425 1.079h-6.868c-.36 0-.493.398-.204.616l5.546 4.11c.617.436.803.928.509 1.644l-2.137 6.628c-.062.314.271.63.56.41l5.596-4.11c.66-.422 1.238-.453 1.883 0l5.647 4.11c.259.262.624-.116.509-.41l-2.137-6.628c-.24-.732-.125-1.197.509-1.644z" fill="#fff"/><path d="M143.048 67.606c.673 3.194 4.63 3.64 6.598 3.227 5.206-1.096 3.788-9-1.5-9-2.052 0-5.77 2.58-5.098 5.773z" fill="#FFBF00"/><path d="M25.85 30.175c1.023 2.804 3.523 2.597 6.327 1.574 2.804-1.022 2.944-2.543 1.922-5.347-1.023-2.805-2.217-4.179-5.022-3.156a5.405 5.405 0 00-3.227 6.929z" fill="#B7EB6E"/><path d="M36.346 69.445c-2.824-.967-4.234 1.108-5.2 3.932-.968 2.824.127 3.888 2.951 4.855 2.825.967 4.644.901 5.611-1.923a5.405 5.405 0 00-3.362-6.864z" fill="#FFDDBF"/><path d="M144.588 68.5a4 4 0 100-8 4 4 0 000 8zM26 29a4 4 0 100-8 4 4 0 000 8zm106.805-8.5v6m0 6v6m-3-9h-6m18 0h-6m-119.592 16v4m0 6v4m-3-7h-4m14 0h-4" stroke="#071D2B" stroke-width="1.5" stroke-miterlimit="10" stroke-linecap="round" stroke-linejoin="round"/><path d="M53.875 42.084c-.034 4.449.617 8.71 1.577 12.156 2.86 10.273 11.875 17.418 20.978 22.5a7.323 7.323 0 007.14 0c9.104-5.082 18.117-12.227 20.978-22.5.96-3.447 1.611-7.707 1.577-12.156-.027-3.537-.019-7.076-.01-10.614a7.939 7.939 0 00-5.664-7.636c-5.68-1.695-11.375-3.351-17.065-5.018a12.048 12.048 0 00-6.772 0c-5.69 1.667-11.384 3.323-17.066 5.018a7.94 7.94 0 00-5.663 7.636c.009 3.538.017 7.077-.01 10.614z" stroke="#071D2B" stroke-width="1.5" stroke-linecap="round" stroke-linejoin="round"/><path d="M85.692 45.692l5.597-4.11c.25-.19.113-.617-.204-.617h-6.868c-.833 0-1.185-.293-1.425-1.079l-2.137-6.627c-.13-.26-.731-.328-.814 0l-2.137 6.627c-.284.745-.604 1.079-1.425 1.079h-6.868c-.36 0-.493.399-.204.616l5.546 4.11c.617.437.803.928.509 1.645l-2.137 6.627c-.061.314.271.63.56.411l5.596-4.11c.66-.423 1.238-.454 1.883 0l5.647 4.11c.259.261.624-.117.51-.41l-2.138-6.628c-.24-.732-.125-1.198.509-1.644z" stroke="#071D2B" stroke-width="1.5" stroke-linecap="round" stroke-linejoin="round"/></svg>