<svg width="160" height="96" fill="none" xmlns="http://www.w3.org/2000/svg"><path d="M91.224 27.154C87.93 23.508 83.06 20 76.5 20c-6.56 0-11.431 3.508-14.724 7.154-1.455 1.612.61 3.41 2.548 2.43 7.82-3.955 16.533-3.955 24.352 0 1.937.98 4.003-.818 2.548-2.43z" fill="#D5F2A5"/><rect x="63" y="54" width="27" height="20" rx="6" fill="#FFDDBF"/><circle cx="98" cy="68" r="12" fill="#D5F2A5"/><path d="M143.048 67.606c.673 3.194 4.63 3.64 6.598 3.227 5.206-1.096 3.788-9-1.5-9-2.052 0-5.77 2.58-5.098 5.773z" fill="#FFBF00"/><path d="M25.85 30.175c1.023 2.804 3.523 2.597 6.327 1.574 2.804-1.022 2.944-2.543 1.922-5.347-1.023-2.805-2.217-4.179-5.022-3.156a5.405 5.405 0 00-3.227 6.929z" fill="#B7EB6E"/><path d="M36.346 69.445c-2.824-.967-4.234 1.108-5.2 3.932-.968 2.824.127 3.888 2.951 4.855 2.825.967 4.644.901 5.611-1.923a5.405 5.405 0 00-3.362-6.864z" fill="#FFDDBF"/><path d="M144.588 68.5a4 4 0 100-8 4 4 0 000 8zM26 29a4 4 0 100-8 4 4 0 000 8zm106.805-8.5v6m0 6v6m-3-9h-6m18 0h-6m-119.592 16v4m0 6v4m-3-7h-4m14 0h-4" stroke="#071D2B" stroke-width="1.5" stroke-miterlimit="10" stroke-linecap="round" stroke-linejoin="round"/><path d="M66.128 47.951v-4.885c0-7.105 4.289-11.115 10.297-11.115 6.008 0 10.297 4.05 10.297 11.115v4.885M76.425 64.034v-6.083m-12.87-30c7.184-6.581 18.574-6.659 25.741 0m-31.87-6.5c10.519-9.89 27.497-9.979 38 0M92.9 68.25l2.993 2.953a1 1 0 001.41-.005l5.947-5.948m-9.663-11.247v0c0-3.314-2.687-6.052-6-6.052H65.264a6 6 0 00-6 6v14a6 6 0 006 6H84.26M110 67.9c0 6.506-5.457 12.1-12 12.1-6.595 0-12-5.52-12-12.1C86 61.284 91.417 56 98 56c6.503 0 12 5.36 12 11.9z" stroke="#071D2B" stroke-width="1.5" stroke-linecap="round" stroke-linejoin="round"/></svg>